<svg xmlns="http://www.w3.org/2000/svg" xmlns:xlink="http://www.w3.org/1999/xlink" width="349.59" height="169.79" viewBox="0 0 349.59 169.79"><path fill="#FFF" d="M24.06 95.47v15.32H6.48V95.47H0v36.86h6.48V116.8h17.58v15.53h6.48V95.47zm32.05 22.33L41.47 95.47h7.64l10.32 16.32 10.42-16.32h7.42l-14.63 22.17v14.69h-6.53z"/><defs><path id="a" d="M0 0h349.59v169.79H0z"/></defs><clipPath id="b"><use xlink:href="#a" overflow="visible"/></clipPath><path clip-path="url(#b)" fill="#FFF" d="M88.21 95.47h14.53c8.58 0 14 4.9 14 12.43 0 8.27-6.63 12.59-14.74 12.59h-7.32v11.84H88.2V95.47zm14.01 19.17c4.9 0 7.95-2.74 7.95-6.69 0-4.31-3.11-6.58-7.95-6.58h-7.53v13.27h7.53zm26.41-19.17h27.33v5.8h-20.85v9.58h18.48v5.79h-18.48v9.9h21.11v5.79h-27.59zm40.53 0h16.43c8.63 0 13.69 4.63 13.69 11.74 0 6.05-3.63 9.68-8.79 11.16l9.95 13.95h-7.63l-9.16-12.85h-8v12.85h-6.48V95.47zm15.95 18.27c4.63 0 7.58-2.42 7.58-6.26 0-3.95-2.84-6.11-7.63-6.11h-9.43v12.37h9.48zm27.84-18.27h4.16v33.01h20.74v3.85h-24.9zm38.21 0h4.16v36.85h-4.16zm20.21 0h3.89l23.22 29.54V95.47h4.06v36.86h-3.32l-23.8-30.22v30.22h-4.05zm46.84 0h4.16v22.01l21.16-22.01h5.37l-15.79 16.11 16.48 20.75h-5.21l-14.17-17.85-7.84 7.95v9.9h-4.16zM0 160.33c0-5.2 3.89-9.46 9.43-9.46 3.37 0 5.41 1.17 7.16 2.85l-2.06 2.38c-1.46-1.36-3.03-2.27-5.12-2.27-3.5 0-6.03 2.87-6.03 6.51 0 3.58 2.53 6.51 6.03 6.51 2.25 0 3.68-.91 5.25-2.38l2.06 2.09c-1.91 1.98-4 3.24-7.42 3.24-5.33-.01-9.3-4.16-9.3-9.47m65.86-9.27h2.98l8.05 18.41H73.5l-1.86-4.41h-8.65l-1.88 4.41h-3.29l8.04-18.41zm4.6 11.15l-3.16-7.31-3.13 7.31h6.29zm48.85-11.02h7.21c4.26 0 6.95 2.43 6.95 6.16 0 4.1-3.29 6.24-7.31 6.24h-3.63v5.88h-3.21v-18.28zm6.95 9.51c2.43 0 3.94-1.36 3.94-3.32 0-2.14-1.54-3.26-3.94-3.26h-3.74v6.58h3.74zm49.98-9.51h3.21v18.28h-3.21zm51.89 2.98h-5.8v-2.98h14.84v2.98h-5.8v15.31h-3.24zm54.52-3.11h2.98l8.05 18.41h-3.39l-1.86-4.41h-8.65l-1.88 4.41h-3.29l8.04-18.41zm4.6 11.15l-3.16-7.31-3.14 7.31h6.3zm48.85-11.02h3.22v15.36h9.61v2.92H336.1zM165.25 77.01V0l38.51 38.51-38.51 38.5zm4.11-67.08v57.15l28.58-28.58-28.58-28.57z"/><path clip-path="url(#b)" fill="#FFF" d="M147.03 72.05V4.96l33.55 33.54-33.55 33.55zM158 31.44v14.13l7.06-7.07-7.06-7.06z"/></svg>